<svg width="84" height="42" viewBox="0 0 84 42" fill="none" xmlns="http://www.w3.org/2000/svg">
<path d="M83.8001 41.8643H26.5185L26.3169 41.8351C26.3169 40.2266 26.3169 38.619 26.3169 37.0123C26.3169 35.4366 26.3169 33.8609 26.3169 32.2826L26.5107 32.248H26.8249H83.8106L83.9887 32.357C83.9887 35.473 83.9887 38.5898 83.9887 41.7075C83.9721 41.7472 83.9463 41.7822 83.9135 41.8096C83.8806 41.8369 83.8417 41.8557 83.8001 41.8643ZM30.1954 37.573H30.1509C30.1469 37.5315 30.1469 37.4896 30.1509 37.4481C30.3187 36.3372 30.3836 35.2127 30.3446 34.0895C30.3446 33.8849 30.3001 33.8078 30.0828 33.8237C29.7688 33.8437 29.4539 33.8437 29.14 33.8237C28.9095 33.8105 28.8781 33.9008 28.8781 34.1134C28.8781 35.8857 28.8781 37.658 28.8781 39.4277C28.8781 39.6934 28.7655 40.0335 28.9279 40.193C29.0902 40.3524 29.4254 40.2328 29.6847 40.2355C30.3892 40.2355 30.3839 40.2355 30.6065 39.5632C30.9182 38.6279 31.2377 37.7032 31.5519 36.7599C31.5846 36.8444 31.5928 36.9366 31.5755 37.0256C31.4024 38.0189 31.3374 39.0285 31.3817 40.0362C31.3817 40.1983 31.4236 40.2567 31.5938 40.2488C31.9474 40.2328 32.3035 40.2488 32.6597 40.2488C32.8037 40.2488 32.8613 40.2169 32.8587 40.0548C32.8587 38.0495 32.8587 36.0442 32.8587 34.039C32.8587 33.8583 32.788 33.8264 32.6335 33.8344C32.3716 33.8344 32.1097 33.8344 31.8479 33.8344C31.3686 33.8344 31.3765 33.8344 31.2324 34.2914C30.8946 35.3782 30.5437 36.4756 30.1954 37.573ZM51.4628 36.8157C51.486 36.7938 51.5105 36.7734 51.5362 36.7546C51.8271 36.5832 52.0518 36.3164 52.1732 35.9981C52.2946 35.6797 52.3054 35.3289 52.204 35.0035C52.1433 34.6885 51.9793 34.4036 51.7387 34.1952C51.4981 33.9867 51.195 33.8671 50.8789 33.8556C50.067 33.7786 49.2499 33.8556 48.4329 33.8184C48.2391 33.8184 48.2496 33.93 48.2496 34.0655C48.2496 36.0372 48.2496 38.0088 48.2496 39.9804C48.2496 40.1744 48.2967 40.2461 48.4931 40.2302C49.1321 40.2302 49.7711 40.2302 50.4075 40.2302C51.7719 40.2302 52.4685 39.3878 52.293 38.0114C52.2728 37.755 52.185 37.5088 52.039 37.2984C51.893 37.0881 51.694 36.9214 51.4628 36.8157ZM42.6112 37.0549C42.6112 36.069 42.6112 35.0832 42.6112 34.0948C42.6112 33.9008 42.5772 33.8051 42.3493 33.8291C42.0063 33.8477 41.658 33.845 41.3149 33.8291C41.0975 33.8291 41.053 33.9061 41.053 34.0948C41.0661 34.5917 41.053 35.0912 41.053 35.5908C41.053 36.3002 41.053 36.2923 40.3486 36.2949C40.139 36.2949 40.0867 36.2365 40.0867 36.0292C40.0998 35.3808 40.0867 34.7325 40.0867 34.0868C40.0867 33.8769 40.0291 33.8078 39.8248 33.8211C39.4712 33.8211 39.1151 33.8211 38.7589 33.8211C38.5913 33.8211 38.5416 33.8769 38.5442 34.0416C38.5442 36.0345 38.5442 38.0291 38.5442 40.0256C38.5442 40.193 38.5992 40.2435 38.7615 40.2381C39.1256 40.2381 39.4948 40.2249 39.8588 40.2381C40.0369 40.2381 40.0945 40.1877 40.0919 40.007C40.0919 39.4118 40.0919 38.8166 40.0919 38.224C40.0919 37.5331 40.0919 37.5438 40.7859 37.5385C41.0085 37.5385 41.0635 37.6049 41.0478 37.8228C41.0478 38.5455 41.0478 39.2656 41.0478 39.9884C41.0478 40.1797 41.1002 40.2541 41.294 40.2381C41.6501 40.2249 42.0063 40.2222 42.3624 40.2381C42.5667 40.2381 42.6034 40.1691 42.6007 39.9724C42.6112 39.0079 42.6112 38.0327 42.6112 37.0549ZM69.1818 36.9991C69.1818 36.4809 69.1818 35.9601 69.1818 35.442C69.1818 35.0832 69.3704 34.8946 69.7056 34.9105C69.7751 34.9079 69.8443 34.9199 69.909 34.9457C69.9737 34.9715 70.0325 35.0105 70.0817 35.0604C70.1308 35.1103 70.1693 35.1699 70.1947 35.2355C70.2201 35.3012 70.2319 35.3715 70.2293 35.442C70.2293 35.5562 70.2293 35.6731 70.2293 35.79C70.2293 35.907 70.2817 35.9734 70.4153 35.9707C70.8134 35.9707 71.2009 35.9707 71.6095 35.9707C71.6959 35.9707 71.7587 35.9707 71.7823 35.8458C71.8386 35.5097 71.801 35.1642 71.6737 34.8486C71.5464 34.533 71.3346 34.2599 71.0621 34.0602C70.7 33.8346 70.289 33.7024 69.8649 33.675C69.4408 33.6477 69.0166 33.7261 68.6292 33.9035C68.3735 34.0029 68.1496 34.1718 67.982 34.3915C67.8143 34.6113 67.7094 34.8735 67.6786 35.1497C67.6463 35.3481 67.6322 35.5491 67.6367 35.7502C67.6524 36.7652 67.5739 37.7856 67.6812 38.8006C67.7703 39.6376 68.1631 40.1132 68.9356 40.3099C69.4659 40.4437 70.0208 40.4391 70.5488 40.2966C70.8412 40.2288 71.1073 40.0748 71.3138 39.8541C71.5202 39.6333 71.6577 39.3555 71.709 39.0557C71.7709 38.6684 71.7963 38.2761 71.7849 37.8839C71.7849 37.7298 71.7326 37.6846 71.5833 37.6873C71.2088 37.6873 70.8317 37.6873 70.4546 37.6873C70.2686 37.6873 70.2267 37.7537 70.2267 37.9264C70.2437 38.2118 70.2359 38.4981 70.2032 38.782C70.19 38.9001 70.1333 39.0088 70.0444 39.0862C69.9555 39.1636 69.841 39.204 69.7239 39.1992C69.6076 39.2135 69.4905 39.1803 69.3982 39.1071C69.3059 39.0339 69.246 38.9265 69.2316 38.8086C69.2057 38.6845 69.1917 38.5581 69.1897 38.4313C69.1713 37.9556 69.174 37.4773 69.174 36.9991H69.1818ZM58.2325 37.0416C58.2325 38.0274 58.2325 39.0158 58.2325 40.0016C58.2325 40.1744 58.2639 40.2408 58.4525 40.2381C59.4878 40.2381 60.524 40.2381 61.561 40.2381C61.7208 40.2381 61.7836 40.1983 61.7758 40.0256C61.7588 39.7717 61.7588 39.5169 61.7758 39.263C61.7915 39.0398 61.6998 38.9972 61.5139 38.9972C61.0137 38.9972 60.5109 38.9972 60.0081 38.9972C59.809 38.9972 59.7462 38.9388 59.7645 38.7475C59.7776 38.418 59.7802 38.0885 59.7645 37.759C59.7645 37.5491 59.8405 37.5172 60.0264 37.5225C60.4664 37.5225 60.9063 37.5225 61.3358 37.5225C61.5375 37.5225 61.5977 37.4587 61.582 37.2568C61.5676 37.0028 61.5676 36.7482 61.582 36.4942C61.5977 36.2896 61.5191 36.2444 61.3201 36.2497C60.8697 36.263 60.4192 36.2497 59.9714 36.2497C59.8117 36.2497 59.7436 36.2125 59.754 36.0372C59.7671 35.7831 59.7671 35.5286 59.754 35.2746C59.741 35.0832 59.7986 35.0088 59.995 35.0221C60.4978 35.0381 61.0006 35.0221 61.5034 35.0221C61.7051 35.0221 61.7863 34.9743 61.7653 34.7564C61.7483 34.5131 61.7483 34.269 61.7653 34.0257C61.7836 33.8078 61.7051 33.76 61.5034 33.76C60.4978 33.76 59.4922 33.76 58.4892 33.76C58.2508 33.76 58.2273 33.8477 58.2273 34.0549C58.2299 35.0886 58.2247 36.0664 58.2247 37.0416H58.2325ZM78.7379 37.6261C78.7379 38.3887 78.7379 39.154 78.7379 39.9166C78.7379 40.1531 78.7746 40.2647 79.0417 40.2408C79.3231 40.2156 79.6062 40.2156 79.8876 40.2408C80.1285 40.2594 80.1835 40.1744 80.1809 39.9379C80.1809 38.5801 80.1809 37.2249 80.1809 35.8671C80.1809 35.6147 80.0997 35.2772 80.2254 35.1311C80.3511 34.9849 80.7151 35.0939 80.9744 35.0726H81.0687C81.2258 35.0912 81.2913 35.0354 81.2808 34.86C81.2611 34.6062 81.2611 34.3512 81.2808 34.0974C81.3017 33.8716 81.2127 33.8317 81.0189 33.845C80.1809 33.845 79.3429 33.845 78.5075 33.845C78.1984 33.845 77.7899 33.7068 77.604 33.9114C77.418 34.116 77.5752 34.5173 77.5516 34.8335C77.5385 35.0088 77.5909 35.0832 77.7768 35.07C78.0151 35.0567 78.2587 35.0832 78.497 35.07C78.7353 35.0567 78.7589 35.139 78.7589 35.3357C78.7222 36.0983 78.7301 36.8635 78.7301 37.6261H78.7379Z" fill="#0171B8"/>
<path d="M14.3697 31.8995C14.3697 30.4726 14.3697 29.0935 14.3697 27.7118C14.3697 27.5364 14.4116 27.478 14.5949 27.4806C17.9348 27.4806 21.2756 27.4806 24.6172 27.4806C24.79 27.4806 24.8215 27.5471 24.8215 27.7038C24.8215 30.8765 24.8215 34.05 24.8215 37.2245C24.8217 37.287 24.809 37.3488 24.7842 37.406C24.7594 37.4633 24.723 37.5146 24.6774 37.5566C22.8547 39.4728 20.5483 40.8442 18.0099 41.5211C15.9919 42.06 13.8824 42.1456 11.8284 41.772C9.77451 41.3985 7.82563 40.5747 6.1178 39.3582C3.19781 37.2537 1.24941 34.4451 0.432335 30.9137C-0.672809 26.1308 0.343295 21.8102 3.45184 18.0344C5.39593 15.6732 8.04557 14.0193 10.9993 13.3233C12.0054 13.0827 13.0328 12.9456 14.0659 12.9141C14.265 12.9141 14.3278 12.9539 14.3278 13.1798C14.3278 16.6394 14.3278 20.0999 14.3278 23.5613C14.3278 23.7606 14.2807 23.827 14.0659 23.827C12.3501 23.8819 10.6972 24.4959 9.35205 25.5781C8.50111 26.2422 7.79244 27.0752 7.26925 28.0264C6.74606 28.9775 6.41932 30.0268 6.30898 31.1103C6.13245 32.7626 6.45395 34.4304 7.23103 35.8935C8.00811 37.3565 9.20423 38.546 10.6615 39.305C13.8041 40.9737 17.9287 40.2775 20.2804 37.5832C20.8011 37.0259 21.1461 36.3236 21.2711 35.5662C21.3961 34.8088 21.2956 34.0308 20.9823 33.3317C20.7261 32.6362 20.2805 32.0288 19.6972 31.5805C19.1139 31.1322 18.417 30.8613 17.6878 30.7994C17.1416 30.7285 16.5868 30.7749 16.0593 30.9355C15.5319 31.0962 15.0437 31.3676 14.6264 31.7321C14.553 31.7906 14.4823 31.8278 14.3697 31.8995Z" fill="#0171B8"/>
<path d="M78.4889 22.8994L78.7874 21.2254C79.2728 18.5257 79.7564 15.8278 80.2383 13.1317C80.2854 12.866 80.3509 12.7251 80.6808 12.7384C81.6655 12.7703 82.6502 12.7597 83.6349 12.7384C83.9177 12.7384 83.9989 12.8022 83.9989 13.0998C83.9884 17.6754 83.9884 22.2502 83.9989 26.824C83.9989 27.3555 83.9989 27.3555 83.4568 27.3555C82.7968 27.3555 82.1474 27.3555 81.477 27.3555C81.2151 27.3555 81.1706 27.2864 81.1706 27.0419C81.181 24.1988 81.181 21.3547 81.1706 18.5098C81.1706 18.4035 81.236 18.2122 81.1208 18.2042C80.9584 18.1909 81.0108 18.3876 80.9925 18.4992C80.7306 20.1094 80.4687 21.7187 80.2068 23.3272C80.0052 24.5814 79.8009 25.8356 79.6124 27.0924C79.5835 27.2891 79.5286 27.3581 79.3243 27.3581C78.7272 27.3449 78.1301 27.3581 77.5356 27.3581C77.3733 27.3581 77.2973 27.3289 77.2737 27.1429C77.0721 25.801 76.8573 24.4645 76.6452 23.1253C76.3991 21.5682 76.1511 20.0111 75.9015 18.454C75.8858 18.3583 75.9224 18.1883 75.7915 18.1883C75.6605 18.1883 75.7234 18.361 75.7234 18.454C75.7234 21.3078 75.7234 24.1625 75.7234 27.018C75.7234 27.2705 75.6815 27.3634 75.4065 27.3555C74.6837 27.3316 73.9609 27.3342 73.2381 27.3555C72.9763 27.3555 72.8872 27.297 72.8872 27.01C72.9003 24.5469 72.8872 22.0837 72.8872 19.6231C72.8872 17.4257 72.8872 15.2282 72.8872 13.0307C72.8872 12.765 72.9579 12.7172 73.2015 12.7198C74.2071 12.7198 75.2127 12.7411 76.2184 12.7198C76.5221 12.7198 76.6007 12.8261 76.6478 13.0971C76.8862 14.4948 77.1428 15.8872 77.3916 17.2822L78.3501 22.6257C78.3658 22.7081 78.3894 22.7878 78.4077 22.8702L78.4889 22.8994Z" fill="#0171B8"/>
<path d="M19.5653 0C25.4472 8.73941 24.5411 19.3787 19.5863 26.4786C14.5712 19.6603 13.7018 8.47369 19.5653 0ZM16.7998 17.9172C16.8732 15.9217 16.9753 13.9315 17.465 11.9865C17.9244 10.0337 18.622 8.14675 19.5417 6.36922C20.0298 7.25448 20.4416 8.18084 20.7726 9.13798C21.1177 10.0688 21.4097 11.019 21.6473 11.9838C21.8753 12.9635 22.0371 13.9578 22.1318 14.9598C22.2313 15.9377 22.2706 16.9155 22.3046 17.8827C23.3176 12.4251 22.3334 6.77994 19.5365 2.00615C16.8077 7.02022 15.7994 12.2947 16.7946 17.9172H16.7998ZM19.5653 25.5592C21.1759 22.6736 21.0476 18.7622 19.5836 15.9935C18.0359 17.8854 18.0254 23.3777 19.5653 25.5592Z" fill="#0171B8"/>
<path d="M48.4588 20.0753C48.4588 17.7423 48.4588 15.4067 48.4588 13.0737C48.4588 12.808 48.5348 12.7416 48.7914 12.7442C50.78 12.7548 52.7694 12.7548 54.7597 12.7442C55.0033 12.7442 55.0478 12.8133 55.0478 13.0445C55.0478 17.7158 55.0478 22.3853 55.0478 27.053C55.0478 27.3188 54.9692 27.3852 54.7152 27.3772C53.9819 27.3613 53.2495 27.3613 52.518 27.3772C52.2561 27.3772 52.2064 27.3134 52.2064 27.0637C52.2064 23.0301 52.2064 18.9974 52.2064 14.9656C52.2064 14.5405 52.2064 14.5405 51.7978 14.5405C51.2741 14.5405 51.2741 14.5405 51.2741 15.0559C51.2741 19.0576 51.2741 23.0584 51.2741 27.0584C51.2741 27.2975 51.2348 27.3852 50.9729 27.3799C50.2536 27.3586 49.5317 27.3586 48.8071 27.3799C48.5217 27.3799 48.4379 27.3134 48.4405 27.0158C48.4641 24.7041 48.4588 22.3897 48.4588 20.0753Z" fill="#0171B8"/>
<path d="M71.4916 20.0458V24.7888C71.4932 25.1817 71.4484 25.5733 71.358 25.9553C71.2985 26.3152 71.1217 26.6445 70.8557 26.8902C70.5898 27.1359 70.2502 27.2839 69.8915 27.3105C68.7669 27.434 67.6325 27.434 66.508 27.3105C65.5992 27.2068 65.0388 26.5399 64.9655 25.5886C64.9341 25.1768 64.9157 24.7622 64.9157 24.3477C64.9157 21.377 64.9157 18.4054 64.9157 15.4329C64.9009 14.9855 64.9485 14.5382 65.0571 14.1044C65.2588 13.3816 65.7092 12.898 66.4425 12.8156C67.608 12.6721 68.7863 12.6721 69.9517 12.8156C70.8421 12.9325 71.3057 13.5463 71.4314 14.5348C71.4732 14.8501 71.4942 15.1679 71.4942 15.4861C71.489 17.0086 71.4916 18.5285 71.4916 20.0458ZM67.7519 20.0165C67.7519 21.6108 67.7519 23.2122 67.7519 24.8207C67.7501 24.9373 67.7589 25.0538 67.7781 25.1688C67.7952 25.264 67.8447 25.3502 67.9179 25.4123C67.991 25.4744 68.0834 25.5086 68.1788 25.5089C68.2691 25.5177 68.3597 25.4966 68.4372 25.4487C68.5146 25.4008 68.5747 25.3287 68.6083 25.2432C68.6609 25.1268 68.6843 24.999 68.6764 24.8712V15.1752C68.6867 15.0481 68.6631 14.9206 68.6083 14.8058C68.5674 14.7191 68.4998 14.6483 68.4156 14.6042C68.3315 14.5601 68.2355 14.545 68.1421 14.5614C68.0476 14.571 67.959 14.6122 67.8902 14.6786C67.8215 14.745 67.7765 14.8328 67.7624 14.9281C67.7518 15.0225 67.7518 15.1179 67.7624 15.2124C67.7519 16.8147 67.7519 18.4143 67.7519 20.0165Z" fill="#0171B8"/>
<path d="M35.5037 12.749C36.1532 12.749 36.8131 12.749 37.4521 12.749C37.6537 12.749 37.7375 12.7862 37.7611 13.0147C37.934 14.8057 38.1278 16.5966 38.3085 18.3875C38.5049 20.3459 38.6934 22.3068 38.8872 24.2678C38.9815 25.2058 39.0758 26.1438 39.1884 27.0791C39.2172 27.3262 39.1569 27.382 38.9265 27.3767C38.1932 27.3608 37.46 27.3634 36.7293 27.3767C36.5093 27.3767 36.4491 27.3129 36.436 27.0924C36.3784 25.9923 36.2946 24.8949 36.2343 23.7922C36.2212 23.561 36.1584 23.4547 35.9044 23.4786C35.6333 23.5012 35.3609 23.5012 35.0899 23.4786C34.8699 23.4627 34.8149 23.5398 34.8018 23.7603C34.7416 24.8604 34.6578 25.9604 34.5897 27.0605C34.5897 27.2837 34.5269 27.3847 34.2676 27.3767C33.5265 27.3555 32.7827 27.3767 32.039 27.3767C31.8714 27.3767 31.8007 27.3581 31.8242 27.1508C31.9988 25.5087 32.1734 23.8657 32.348 22.2218C32.547 20.2608 32.733 18.2998 32.9294 16.3389C33.042 15.2335 33.1651 14.1281 33.2751 13.0201C33.296 12.8181 33.3536 12.7384 33.5762 12.7543C34.2231 12.7729 34.8725 12.7543 35.522 12.7543L35.5037 12.749ZM36.0641 21.3237C35.9175 19.1271 35.7699 16.9287 35.6215 14.7286C35.6215 14.6489 35.6425 14.5373 35.5142 14.54C35.3858 14.5426 35.3989 14.6595 35.3937 14.7499C35.3239 15.8499 35.254 16.95 35.1842 18.0501C35.1161 19.1129 35.0585 20.1758 34.9721 21.2519C34.9197 21.9003 34.8987 21.8976 35.5299 21.8976C36.0798 21.895 36.0798 21.895 36.0641 21.3237Z" fill="#0171B8"/>
<path d="M43.9729 23.2287C43.9729 22.6547 43.9729 22.0834 43.9729 21.5095C43.9826 21.406 43.9714 21.3015 43.9399 21.2026C43.9085 21.1036 43.8576 21.0121 43.7902 20.9338C43.7228 20.8555 43.6404 20.7919 43.548 20.747C43.4555 20.702 43.3551 20.6767 43.2527 20.6725C42.8059 20.6207 42.3556 20.6074 41.9066 20.6326C41.7442 20.6326 41.6866 20.5901 41.6919 20.4174C41.6919 20.0374 41.6919 19.6548 41.6919 19.2721C41.6919 19.1047 41.7364 19.0516 41.9066 19.0543C42.3335 19.0543 42.7656 19.0543 43.1925 19.0303C43.7398 18.9852 43.9781 18.7221 43.9781 18.1588C43.9781 17.1305 43.9781 16.1022 43.9781 15.0712C43.9858 15.0053 43.9798 14.9385 43.9605 14.8751C43.9413 14.8117 43.9091 14.7531 43.8662 14.7031C43.8233 14.653 43.7706 14.6126 43.7114 14.5845C43.6521 14.5564 43.5878 14.5411 43.5224 14.5397C43.4561 14.5401 43.3906 14.5546 43.3301 14.5822C43.2696 14.6097 43.2154 14.6498 43.171 14.6998C43.1267 14.7498 43.0931 14.8087 43.0724 14.8726C43.0518 14.9366 43.0445 15.0042 43.051 15.0712C43.051 15.762 43.0353 16.4502 43.051 17.1411C43.051 17.3882 42.9856 17.4387 42.7551 17.4334C41.9904 17.4174 41.2257 17.4334 40.461 17.4334C40.3458 17.4334 40.2253 17.46 40.2332 17.2713C40.2672 16.2855 40.1415 15.2944 40.3327 14.3165C40.5239 13.3387 41.0869 12.8392 42.0585 12.786C43.0415 12.7289 44.0269 12.7289 45.0099 12.786C45.4455 12.783 45.8659 12.9487 46.1851 13.2495C46.5044 13.5502 46.6985 13.9632 46.7279 14.4042C46.8636 15.6596 46.8697 16.926 46.7462 18.1827C46.7142 18.5848 46.5354 18.9603 46.2447 19.2356C45.954 19.5109 45.5725 19.6661 45.1749 19.6707C45.1121 19.6707 45.0492 19.6707 44.9863 19.6707C44.9235 19.6707 44.879 19.6867 44.8737 19.7531C44.8685 19.8195 44.9366 19.8514 44.9994 19.8514C45.2299 19.8449 45.4598 19.8763 45.6803 19.9444C46.3874 20.165 46.7802 20.7017 46.7907 21.5998C46.8064 22.947 46.8824 24.2968 46.7357 25.6387C46.6467 26.4518 46.2486 27.2011 45.1906 27.3207C44.1173 27.4323 43.0359 27.4376 41.9616 27.3366C40.9141 27.2463 40.3536 26.574 40.2672 25.4766C40.1887 24.4802 40.2489 23.4837 40.2279 22.4847C40.2279 22.3146 40.2882 22.2721 40.4479 22.2747C41.2336 22.2747 42.0402 22.2747 42.8363 22.2747C43.0406 22.2747 43.0458 22.3651 43.0458 22.5219C43.0458 23.2977 43.0458 24.071 43.0458 24.8469C43.0417 24.9419 43.047 25.0372 43.0615 25.1312C43.0686 25.1898 43.0871 25.2463 43.1159 25.2976C43.1447 25.3489 43.1832 25.3939 43.2292 25.4299C43.2752 25.466 43.3279 25.4925 43.384 25.5078C43.4402 25.5231 43.4988 25.5269 43.5565 25.5191C43.6147 25.5178 43.6721 25.5045 43.7252 25.48C43.7782 25.4555 43.8257 25.4203 43.8649 25.3766C43.9041 25.3328 43.9342 25.2815 43.9532 25.2256C43.9722 25.1697 43.9798 25.1104 43.9755 25.0515C43.9755 24.4377 43.9729 23.8345 43.9729 23.2287Z" fill="#0171B8"/>
<path d="M56.9282 20.0487C56.9282 17.714 56.9282 15.3801 56.9282 13.0471C56.9282 12.8505 56.9282 12.7415 57.19 12.7442C58.6042 12.7601 60.0158 12.7442 61.4299 12.7601C62.2784 12.7601 62.9672 13.0418 63.2998 13.9107C63.4407 14.3219 63.5038 14.7564 63.4857 15.1914C63.4857 16.9186 63.4857 18.6457 63.4647 20.3782C63.4464 21.6377 62.7236 22.3578 61.4797 22.3977C61.0004 22.4136 60.516 22.4189 60.0367 22.3977C59.7748 22.3844 59.7486 22.4721 59.7513 22.6979C59.7513 24.1514 59.7513 25.6049 59.7513 27.0583C59.7513 27.2948 59.712 27.3878 59.4501 27.3825C58.7168 27.3612 57.9835 27.3639 57.2529 27.3825C56.991 27.3825 56.9203 27.324 56.9229 27.0557C56.9334 24.7147 56.9282 22.3817 56.9282 20.0487ZM59.7486 17.6839C59.7486 18.6378 59.7486 19.5917 59.7486 20.5456C59.7486 20.7502 59.801 20.8113 60.0105 20.8113C60.4374 20.7954 60.6783 20.5456 60.6809 20.0381C60.6809 18.4597 60.6809 16.8787 60.6809 15.3004C60.683 15.1308 60.6424 14.9634 60.5631 14.8141C60.4886 14.6974 60.3777 14.6093 60.2481 14.564C60.1185 14.5187 59.9777 14.5189 59.8482 14.5643C59.6544 14.6467 59.7591 14.8301 59.7591 14.9789C59.7434 15.8823 59.7486 16.7831 59.7486 17.6839Z" fill="#0171B8"/>
<path d="M29.323 14.5376C29.1004 14.5004 29.1004 14.6359 29.1004 14.8033C29.1004 15.8236 29.1004 16.8413 29.1004 17.8617C29.1004 20.928 29.1004 23.9944 29.1004 27.0608C29.1004 27.3052 29.048 27.385 28.7966 27.377C28.0529 27.3584 27.3091 27.377 26.5654 27.377C26.3768 27.377 26.3035 27.3531 26.3035 27.1272C26.3035 22.4134 26.3035 17.7014 26.3035 12.9911C26.3035 12.9087 26.2773 12.8184 26.3559 12.752H26.4528H31.5726L31.659 12.7732L31.6878 12.8529C31.6878 13.3578 31.6878 13.8626 31.6878 14.3675L31.6276 14.5323H29.3885C29.3754 14.4951 29.3492 14.4951 29.323 14.5376Z" fill="#0171B8"/>
<path d="M83.8003 41.8635C83.8417 41.8542 83.8802 41.8348 83.9126 41.8071C83.945 41.7793 83.9703 41.744 83.9862 41.7041C84.0334 41.8795 83.96 41.9167 83.8003 41.8635Z" fill="#68A9D1"/>
<path d="M83.9886 32.3427L83.8105 32.2338C83.9074 32.2045 84.0122 32.1673 83.9886 32.3427Z" fill="#68A9D1"/>
<path d="M26.5078 32.2369L26.314 32.2715C26.3742 32.1625 26.437 32.2183 26.5078 32.2369Z" fill="#68A9D1"/>
<path d="M31.6382 14.5349L31.6984 14.3701C31.7167 14.4392 31.7586 14.5163 31.6382 14.5349Z" fill="#68A9D1"/>
<path d="M26.3169 41.8242L26.5185 41.8534C26.4452 41.8853 26.3745 41.9278 26.3169 41.8242Z" fill="#68A9D1"/>
<path d="M29.3232 14.5376C29.3494 14.5057 29.3756 14.5057 29.3992 14.5376H29.3232Z" fill="#68A9D1"/>
<path d="M31.6958 12.8551L31.667 12.7754C31.7063 12.7887 31.7141 12.8152 31.6958 12.8551Z" fill="#68A9D1"/>
<path d="M31.6616 12.7733L31.5752 12.752C31.6119 12.7228 31.6433 12.7175 31.6616 12.7733Z" fill="#68A9D1"/>
<path d="M26.4558 12.7565H26.3589C26.3648 12.7493 26.3722 12.7435 26.3806 12.7395C26.3889 12.7355 26.3981 12.7334 26.4073 12.7334C26.4166 12.7334 26.4257 12.7355 26.4341 12.7395C26.4425 12.7435 26.4499 12.7493 26.4558 12.7565Z" fill="#68A9D1"/>
<path d="M49.7476 38.2904C49.7384 38.1737 49.7384 38.0564 49.7476 37.9396C49.7737 37.7908 49.6349 37.5836 49.8366 37.4932C49.9761 37.45 50.1245 37.4454 50.2663 37.48C50.4082 37.5146 50.5383 37.587 50.6432 37.6899C50.7398 37.8539 50.7954 38.0394 50.805 38.2303C50.8146 38.4212 50.7779 38.6115 50.6982 38.7846C50.5594 39.1274 50.2059 39.0769 49.9125 39.0875C49.7921 39.0875 49.7449 39.0503 49.7502 38.9255C49.7528 38.7129 49.7476 38.503 49.7476 38.2904Z" fill="#0171B8"/>
<path d="M49.7474 35.6299C49.7421 35.5884 49.7421 35.5464 49.7474 35.505C49.8076 35.3243 49.5562 34.9895 50.0092 35.0054C50.5618 35.024 50.7451 35.1463 50.7556 35.5767C50.7687 36.1799 50.4282 36.443 49.8416 36.2942C49.7395 36.2676 49.7395 36.2118 49.7395 36.1374L49.7474 35.6299Z" fill="#0171B8"/>
</svg>
